REM DIRINDEX 1\2,1\3,1\4,1\5
REM DIRNAME cjc004,folder01,folder02,folder03,folder04
TITLE ""
FILE "1Q_t_0283-0292.mp3" MP3
  TRACK 01 AUDIO
    TITLE "3:cjc004_1750"
    INDEX 01 00:00:00
  TRACK 02 AUDIO
    TITLE "0:"
    INDEX 01 00:01:05
  TRACK 03 AUDIO
    TITLE "4:cjc004_1751"
    INDEX 01 00:01:34
  TRACK 04 AUDIO
    TITLE "0:"
    INDEX 01 00:02:63
  TRACK 05 AUDIO
    TITLE "5:cjc004_1752"
    INDEX 01 00:03:15
  TRACK 06 AUDIO
    TITLE "0:"
    INDEX 01 00:06:35
  TRACK 07 AUDIO
    TITLE "3:cjc004_1753"
    INDEX 01 00:07:15
  TRACK 08 AUDIO
    TITLE "0:"
    INDEX 01 00:08:24
  TRACK 09 AUDIO
    TITLE "4:cjc004_1754"
    INDEX 01 00:08:56
  TRACK 10 AUDIO
    TITLE "0:"
    INDEX 01 00:10:21
  TRACK 11 AUDIO
    TITLE "5:cjc004_1755"
    INDEX 01 00:10:43
  TRACK 12 AUDIO
    TITLE "0:"
    INDEX 01 00:15:32
  TRACK 13 AUDIO
    TITLE "3:cjc004_1756"
    INDEX 01 00:16:14
  TRACK 14 AUDIO
    TITLE "0:"
    INDEX 01 00:17:25
  TRACK 15 AUDIO
    TITLE "4:cjc004_1757"
    INDEX 01 00:17:51
  TRACK 16 AUDIO
    TITLE "0:"
    INDEX 01 00:18:68
  TRACK 17 AUDIO
    TITLE "5:cjc004_1758"
    INDEX 01 00:19:24
  TRACK 18 AUDIO
    TITLE "0:"
    INDEX 01 00:25:23
  TRACK 19 AUDIO
    TITLE "3:cjc004_1759"
    INDEX 01 00:26:01
  TRACK 20 AUDIO
    TITLE "0:"
    INDEX 01 00:27:16
  TRACK 21 AUDIO
    TITLE "4:cjc004_1760"
    INDEX 01 00:27:47
  TRACK 22 AUDIO
    TITLE "0:"
    INDEX 01 00:28:70
  TRACK 23 AUDIO
    TITLE "5:cjc004_1761"
    INDEX 01 00:29:21
  TRACK 24 AUDIO
    TITLE "0:"
    INDEX 01 00:33:38
  TRACK 25 AUDIO
    TITLE "3:cjc004_1762"
    INDEX 01 00:34:16
  TRACK 26 AUDIO
    TITLE "0:"
    INDEX 01 00:35:27
  TRACK 27 AUDIO
    TITLE "4:cjc004_1763"
    INDEX 01 00:35:51
  TRACK 28 AUDIO
    TITLE "0:"
    INDEX 01 00:36:68
  TRACK 29 AUDIO
    TITLE "5:cjc004_1764"
    INDEX 01 00:37:26
  TRACK 30 AUDIO
    TITLE "0:"
    INDEX 01 00:41:06
  TRACK 31 AUDIO
    TITLE "3:cjc004_1765"
    INDEX 01 00:41:63
  TRACK 32 AUDIO
    TITLE "0:"
    INDEX 01 00:42:68
  TRACK 33 AUDIO
    TITLE "4:cjc004_1766"
    INDEX 01 00:43:27
  TRACK 34 AUDIO
    TITLE "0:"
    INDEX 01 00:44:46
  TRACK 35 AUDIO
    TITLE "5:cjc004_1767"
    INDEX 01 00:44:65
  TRACK 36 AUDIO
    TITLE "0:"
    INDEX 01 00:49:41
  TRACK 37 AUDIO
    TITLE "3:cjc004_1768"
    INDEX 01 00:50:29
  TRACK 38 AUDIO
    TITLE "0:"
    INDEX 01 00:51:24
  TRACK 39 AUDIO
    TITLE "4:cjc004_1769"
    INDEX 01 00:51:62
  TRACK 40 AUDIO
    TITLE "0:"
    INDEX 01 00:52:67
  TRACK 41 AUDIO
    TITLE "5:cjc004_1770"
    INDEX 01 00:53:23
  TRACK 42 AUDIO
    TITLE "0:"
    INDEX 01 00:58:40
  TRACK 43 AUDIO
    TITLE "3:cjc004_1771"
    INDEX 01 00:59:26
  TRACK 44 AUDIO
    TITLE "0:"
    INDEX 01 01:00:33
  TRACK 45 AUDIO
    TITLE "4:cjc004_1772"
    INDEX 01 01:00:66
  TRACK 46 AUDIO
    TITLE "0:"
    INDEX 01 01:02:12
  TRACK 47 AUDIO
    TITLE "5:cjc004_1773"
    INDEX 01 01:02:26
  TRACK 48 AUDIO
    TITLE "0:"
    INDEX 01 01:07:08
  TRACK 49 AUDIO
    TITLE "3:cjc004_1774"
    INDEX 01 01:07:63
  TRACK 50 AUDIO
    TITLE "0:"
    INDEX 01 01:09:05
  TRACK 51 AUDIO
    TITLE "4:cjc004_1775"
    INDEX 01 01:09:30
  TRACK 52 AUDIO
    TITLE "0:"
    INDEX 01 01:11:02
  TRACK 53 AUDIO
    TITLE "5:cjc004_1776"
    INDEX 01 01:11:29
  TRACK 54 AUDIO
    TITLE "0:"
    INDEX 01 01:15:46
  TRACK 55 AUDIO
    TITLE "3:cjc004_1777"
    INDEX 01 01:16:30
  TRACK 56 AUDIO
    TITLE "0:"
    INDEX 01 01:17:51
  TRACK 57 AUDIO
    TITLE "4:cjc004_1778"
    INDEX 01 01:18:11
  TRACK 58 AUDIO
    TITLE "0:"
    INDEX 01 01:19:30
  TRACK 59 AUDIO
    TITLE "5:cjc004_1779"
    INDEX 01 01:19:58
  TRACK 60 AUDIO
    TITLE "0:"
    INDEX 01 01:25:49
